<svg xmlns="http://www.w3.org/2000/svg" viewBox="0 0 2000 2000"><defs><style>.a{fill:#84ffe3;}.b{fill:#90caf9;}</style></defs><path class="a" d="M0,0V700.39c73.29-51.93,147.05-93.85,220-125a913.77,913.77,0,0,1,142.63-47.7C430.81,406.06,505.07,297.38,519.91,276a34.15,34.15,0,0,1,56,0h0c15.05,21.68,91.19,133.11,160.16,256.83q21.72,7,43.76,15.77c57.86,23.11,111.66,53.29,168.61,85.24C1019.56,673.75,1093.13,715,1187.66,751c106.8,40.59,234.34,59.19,359.13,52.35a962.66,962.66,0,0,0,222.81-39c79.16-23.68,156.65-57.89,230.4-101.73V0Z"/><path class="b" d="M1786.57,822.28a1022.32,1022.32,0,0,1-236.71,41.41q-27.57,1.51-55.1,1.51A987.84,987.84,0,0,1,1339,852.92c-61.16-9.77-119.32-25-172.89-45.41-98.69-37.51-177.63-81.8-247.28-120.87-47.75-26.79-93.2-52.28-139.7-72.69,43.25,86.49,76.07,170.87,76.07,227.7a307.23,307.23,0,0,1-614.46,0c0-59.56,36.06-149.38,82.38-240.19q-39.92,12.63-79.83,29.63C162.92,665.38,81.17,713.76,0,775V2000H2000V732.11A1081.33,1081.33,0,0,1,1786.57,822.28Z"/></svg>